#!OML:ASF X:\für Bonn\!DataBase\2005_08_12_Daniel\c3d\Daniel.ASF
:FULLY-SPECIFIED
:DEGREES
64
root 2.23822 17.5686 18.7303 -6.04107 -353.082 362.02
lowerback 4.97035 -2.08311 -1.23897
upperback 0.503238 -2.92075 -3.16685
thorax -2.37141 -1.45851 -2.36145
lowerneck 1.6221 1.8928 -2.76224
upperneck 6.7613 2.55885 -0.412624
head 1.79629 1.20237 0.360456
rclavicle 6.95746e-015 5.56597e-015
rhumerus -31.5153 24.6287 -89.5037
rradius 93.7789
rwrist 5.42105
rhand -31.1064 26.8426
rfingers 7.12502
rthumb -4.38593 -3.09201
lclavicle 6.95746e-015 5.56597e-015
lhumerus -78.8258 60.2203 17.1359
lradius 14.1609
lwrist -69.0605
lhand -7.61113 -4.5135
lfingers 7.12502
lthumb 18.283 24.6473
rfemur 7.03671 16.3308 18.7158
rtibia 20.0145
rfoot -24.9491 -20.3872
rtoes -13.3986
lfemur -0.0966165 -16.9581 -23.2003
ltibia 28.9521
lfoot -21.3399 5.5365
ltoes -14.8521
65
root 2.23695 17.5699 18.7299 -5.99561 -353.133 362.009
lowerback 4.98153 -2.00401 -1.21985
upperback 0.455874 -2.81731 -3.20666
thorax -2.42598 -1.4074 -2.41936
lowerneck 1.78305 1.83034 -2.6652
upperneck 6.70563 2.46571 -0.346272
head 1.75162 1.16063 0.361469
rclavicle -1.59028e-015 7.95139e-016
rhumerus -28.3805 24.6915 -87.9199
rradius 94.5381
rwrist 5.14072
rhand -31.3688 26.8808
rfingers 7.12502
rthumb -4.63928 -3.04836
lclavicle -1.59028e-015 7.95139e-016
lhumerus -79.4074 60.2076 16.2269
lradius 14.098
lwrist -69.5089
lhand -7.83198 -4.77686
lfingers 7.12502
lthumb 18.0705 24.4037
rfemur 6.97657 16.4499 18.7459
rtibia 20.0249
rfoot -24.9849 -20.4384
rtoes -13.3321
lfemur -0.112411 -16.9553 -23.1706
ltibia 28.9077
lfoot -21.3315 5.57822
ltoes -14.8013
66
root 2.23566 17.5709 18.7305 -5.95308 -353.187 362.011
lowerback 4.969 -1.91108 -1.22174
upperback 0.420395 -2.69539 -3.24738
thorax -2.4532 -1.34685 -2.46893
lowerneck 1.93897 1.75953 -2.52838
upperneck 6.66528 2.36449 -0.319135
head 1.71377 1.11476 0.343934
rclavicle 6.4605e-016 2.38542e-015
rhumerus -25.1094 24.5863 -86.2672
rradius 95.1672
rwrist 4.73142
rhand -31.4274 26.6872
rfingers 7.12502
rthumb -4.6958 -3.24074
lclavicle 6.4605e-016 2.38542e-015
lhumerus -79.8088 60.2135 15.5296
lradius 14.044
lwrist -69.913
lhand -8.11506 -4.91723
lfingers 7.12502
lthumb 17.7981 24.2883
rfemur 6.9161 16.5458 18.7497
rtibia 20.0347
rfoot -24.9912 -20.4665
rtoes -13.3161
lfemur -0.119077 -16.9689 -23.1659
ltibia 28.8606
lfoot -21.323 5.64105
ltoes -14.8034
67
root 2.23492 17.5722 18.7311 -5.91391 -353.251 362.002
lowerback 4.95005 -1.80998 -1.20811
upperback 0.384842 -2.56148 -3.28648
thorax -2.4769 -1.28051 -2.52666
lowerneck 2.11579 1.68291 -2.42125
upperneck 6.59807 2.25339 -0.260277
head 1.66319 1.06407 0.340832
rclavicle -1.05853e-014 1.19271e-014
rhumerus -21.9141 24.3022 -84.6209
rradius 95.7181
rwrist 4.27643
rhand -31.3012 26.1796
rfingers 7.12502
rthumb -4.57396 -3.75102
lclavicle -1.05853e-014 1.19271e-014
lhumerus -79.5758 60.1232 15.5752
lradius 14.0357
lwrist -69.9836
lhand -8.41943 -4.98762
lfingers 7.12502
lthumb 17.5052 24.2442
rfemur 6.8718 16.6624 18.7737
rtibia 20.0305
rfoot -25.0168 -20.5041
rtoes -13.2536
lfemur -0.12458 -17.0009 -23.1522
ltibia 28.8253
lfoot -21.3299 5.71392
ltoes -14.7513
68
root 2.23376 17.5731 18.7304 -5.87175 -353.298 362.004
lowerback 4.93541 -1.70962 -1.19802
upperback 0.358379 -2.42893 -3.34037
thorax -2.49394 -1.21488 -2.59765
lowerneck 2.25188 1.59373 -2.28151
upperneck 6.5463 2.12867 -0.220458
head 1.62529 1.00662 0.327093
rclavicle 3.42904e-015 5.56597e-015
rhumerus -18.732 23.8546 -83.009
rradius 96.1268
rwrist 3.85691
rhand -31.0593 25.3954
rfingers 7.12502
rthumb -4.34037 -4.5401
lclavicle 3.42904e-015 5.56597e-015
lhumerus -79.3585 60.092 15.5324
lradius 13.9788
lwrist -70.1645
lhand -8.75899 -4.9973
lfingers 7.12502
lthumb 17.1784 24.2633
rfemur 6.81846 16.7548 18.7791
rtibia 20.0325
rfoot -25.04 -20.5303
rtoes -13.2395
lfemur -0.139858 -17.0084 -23.1431
ltibia 28.7846
lfoot -21.3321 5.76447
ltoes -14.7527
